<svg xmlns="http://www.w3.org/2000/svg" width="90" height="90" viewBox="0 0 90 90">

  <!-- Left building (taller) -->
  <rect x="8" y="25" width="20" height="55" fill="white" stroke="black" stroke-width="2"/>
  <rect x="13" y="32" width="6" height="6" fill="black"/>
  <rect x="13" y="43" width="6" height="6" fill="black"/>
  <rect x="13" y="54" width="6" height="6" fill="black"/>
  <rect x="13" y="65" width="6" height="6" fill="black"/>

  <!-- Middle building (tallest, like your Figma) -->
  <rect x="35" y="10" width="22" height="70" fill="white" stroke="black" stroke-width="2"/>
  <rect x="41" y="18" width="7" height="7" fill="black"/>
  <rect x="41" y="30" width="7" height="7" fill="black"/>
  <rect x="41" y="42" width="7" height="7" fill="black"/>
  <rect x="41" y="54" width="7" height="7" fill="black"/>
  <rect x="41" y="66" width="7" height="7" fill="black"/>

  <!-- Right building (taller) -->
  <rect x="64" y="22" width="20" height="58" fill="white" stroke="black" stroke-width="2"/>
  <rect x="69" y="30" width="6" height="6" fill="black"/>
  <rect x="69" y="41" width="6" height="6" fill="black"/>
  <rect x="69" y="52" width="6" height="6" fill="black"/>
  <rect x="69" y="63" width="6" height="6" fill="black"/>

</svg>

